<?xml version="1.0" encoding="UTF-8" standalone="no"?>
<svg
   xmlns:dc="http://purl.org/dc/elements/1.1/"
   xmlns:cc="http://creativecommons.org/ns#"
   xmlns:rdf="http://www.w3.org/1999/02/22-rdf-syntax-ns#"
   xmlns:svg="http://www.w3.org/2000/svg"
   xmlns="http://www.w3.org/2000/svg"
   xmlns:sodipodi="http://sodipodi.sourceforge.net/DTD/sodipodi-0.dtd"
   xmlns:inkscape="http://www.inkscape.org/namespaces/inkscape"
   version="1.1"
   x="0px"
   y="0px"
   viewBox="0 0 128 128"
   style="enable-background:new 0 0 128 128;"
   xml:space="preserve"
   id="svg1821"
   sodipodi:docname="BicePS.svg"
   inkscape:version="1.0.2 (e86c870879, 2021-01-15, custom)"><metadata
   id="metadata1827"><rdf:RDF><cc:Work
       rdf:about=""><dc:format>image/svg+xml</dc:format><dc:type
         rdf:resource="http://purl.org/dc/dcmitype/StillImage" /><dc:title></dc:title></cc:Work></rdf:RDF></metadata><defs
   id="defs1825" /><sodipodi:namedview
   pagecolor="#ffffff"
   bordercolor="#666666"
   borderopacity="1"
   objecttolerance="10"
   gridtolerance="10"
   guidetolerance="10"
   inkscape:pageopacity="0"
   inkscape:pageshadow="2"
   inkscape:window-width="2496"
   inkscape:window-height="1554"
   id="namedview1823"
   showgrid="true"
   inkscape:zoom="128"
   inkscape:cx="87.978508"
   inkscape:cy="106.19662"
   inkscape:window-x="-12"
   inkscape:window-y="-12"
   inkscape:window-maximized="1"
   inkscape:current-layer="layer2"><inkscape:grid
     type="xygrid"
     id="grid3347" /></sodipodi:namedview>
<g
   id="Layer_2"
   style="display:inline">
	<linearGradient
   id="SVGID_1_"
   gradientUnits="userSpaceOnUse"
   x1="64"
   y1="128"
   x2="64"
   y2="1.434923e-06">
		<stop
   offset="0"
   style="stop-color:#1D4A79"
   id="stop1763" />
		<stop
   offset="1"
   style="stop-color:#45CAF2"
   id="stop1765" />
	</linearGradient>
	<polygon
   style="display:inline;fill:url(#SVGID_1_)"
   points="119.2,32 64,0 8.8,32 8.8,96 64,128 119.2,96 "
   id="polygon1768" />
	<g
   style="display:inline;opacity:0.7"
   id="g1780">
		<polygon
   style="display:inline;fill:#2073b8;fill-opacity:1;stroke:#2184d3;stroke-width:0.5;stroke-linejoin:round;stroke-miterlimit:10;stroke-opacity:1"
   points="118.8,32.3 118.8,95.8 64,127.5 64,64 "
   id="polygon1770" />
		<polygon
   style="display:inline;fill:#266ca3;fill-opacity:1;stroke:#0078d4;stroke-width:0.5;stroke-linejoin:round;stroke-miterlimit:10"
   points="118.8,32.3 64,64 9.2,32.3 64,0.5 "
   id="polygon1772" />
		<polygon
   style="display:inline;fill:#226baa;fill-opacity:1;stroke:#2184d3;stroke-width:0.5;stroke-linejoin:round;stroke-miterlimit:10;stroke-opacity:1"
   points="64,64 64,127.5 9.2,95.8 9.2,32.3 "
   id="polygon1774" />
		<polygon
   style="display:inline;fill:#225e96;fill-opacity:1;stroke:#2184d3;stroke-width:0.5;stroke-linejoin:round;stroke-miterlimit:10;stroke-opacity:1"
   points="64,127.5 9.2,95.8 64,64 "
   id="polygon1776" />
		<polygon
   style="display:inline;fill:#2065a4;fill-opacity:1;stroke:#2184d3;stroke-width:0.5;stroke-linejoin:round;stroke-miterlimit:10;stroke-opacity:1"
   points="118.8,95.8 64,64 64,127.5 "
   id="polygon1778"
   inkscape:label="polygon1778" />
	</g>
</g>
<g
   id="Layer_3"
   style="display:inline"
   transform="matrix(-0.81915204,0.57357644,0.57357644,0.81915204,72.709761,-26.078287)">
	<path
   style="display:inline;fill:#1d4a79"
   d="M 87.5,66.1 C 87,66 86.5,66 86,66 v 0 H 54.9 L 64,43.1 c 0.1,0 0.6,0.2 1,0.2 0.2,0 0.4,0 0.6,-0.1 l 9.6,-3.1 c 0.3,-0.1 0.6,-0.3 0.9,-0.6 l 6.3,-7 -0.2,-2.8 -1.5,-1.3 -7.3,8.1 -8,2.6 -5.8,-5.2 1.7,-8.2 7.3,-8.1 -1.5,-1.4 -2.8,0.2 -6.3,7 c -0.2,0.3 -0.4,0.6 -0.5,0.9 l -2.1,9.8 c -0.1,0.7 0.1,1.4 0.6,1.9 0,0 -1,0.3 -1.2,0.6 L 30.1,68.5 c -3.3,2.3 -5.7,6 -6,10.3 -0.3,3.7 0.9,7.3 3.3,10.2 2.3,2.7 5.4,4.3 8.9,4.8 v 0 l 47,7.9 v -0.1 c 0.5,0.1 0.9,0.2 1.4,0.3 0.5,0 1,0.1 1.5,0.1 9.3,0 17.1,-7.1 17.9,-16.5 0.7,-9.9 -6.7,-18.6 -16.6,-19.4 z"
   id="path1783" />
	<g
   id="g1793">
		<path
   style="opacity:1;fill:#207ac5;fill-opacity:1"
   d="m 38,92.8 c 0,0 -12.1,-3.4 -12.1,-14.2 0,-9.2 12.5,-11.3 12.5,-11.3 L 86.9,68 c 0,0 15.5,1.8 15.5,16 0,14 -15.5,15.9 -15.5,15.9 z"
   id="path1785" />
		<circle
   style="opacity:0.3;fill:#ffffff"
   cx="38"
   cy="80"
   r="12"
   id="circle1787" />
		<polygon
   style="opacity:1;fill:#207ac5;fill-opacity:1"
   points="58.8,34.9 64.4,38.5 52.6,68.4 33.9,68 "
   id="polygon1789" />
		<path
   style="opacity:0.309;fill:#ffffff;fill-opacity:1"
   d="m 82,92 h 8 c 0.4,0 0.7,-0.2 0.9,-0.5 l 4,-7 c 0.2,-0.3 0.2,-0.7 0,-1 l -4,-7 C 90.7,76.2 90.4,76 90,76 h -8 c -0.4,0 -0.7,0.2 -0.9,0.5 l -4,7 c -0.2,0.3 -0.2,0.7 0,1 l 4,7 c 0.2,0.3 0.5,0.5 0.9,0.5 z"
   id="path1791" />
	</g>
</g>
<g
   id="Layer_1"
   style="display:inline"
   transform="matrix(-0.81915204,0.57357644,0.57357644,0.81915204,72.785659,-26.102217)">
	<circle
   style="display:inline;fill:none;stroke:#ffffff;stroke-width:4;stroke-linejoin:round;stroke-miterlimit:10"
   cx="38"
   cy="80"
   r="12"
   id="circle1796" />
	<g
   id="g1800"
   style="display:inline">
		<path
   style="fill:#ffffff"
   d="m 36,84 h 4 c 0.2,0 0.3,-0.1 0.4,-0.3 l 2,-3.5 c 0.1,-0.2 0.1,-0.3 0,-0.5 l -2,-3.5 C 40.4,76.1 40.2,76 40,76 h -4 c -0.2,0 -0.3,0.1 -0.4,0.3 l -2,3.5 c -0.1,0.2 -0.1,0.3 0,0.5 l 2,3.5 c 0,0.1 0.2,0.2 0.4,0.2 z"
   id="path1798" />
	</g>
	<g
   id="g1804"
   style="display:inline">
		<path
   style="display:inline;fill:#ffffff"
   d="m 86,66 v 4 c 0.4,0 0.8,0 1.2,0 3.7,0.3 7.1,2 9.5,4.9 2.4,2.9 3.6,6.5 3.3,10.2 C 99.4,92.4 93.2,98 86,98 85.6,98 85.2,98 84.8,98 81.1,97.7 77.7,96 75.3,93.1 72.9,90.2 71.7,86.6 72,82.9 72.6,75.6 78.8,70 86,70 v -4 m 0,0 c -9.3,0 -17.1,7.1 -17.9,16.5 -0.8,9.9 6.6,18.6 16.5,19.4 0.5,0 1,0.1 1.5,0.1 9.3,0 17.1,-7.1 17.9,-16.5 C 104.8,75.6 97.4,66.9 87.5,66.1 87,66 86.5,66 86,66 Z"
   id="path1802" />
	</g>
	<g
   id="g1808"
   style="display:inline">
		<path
   style="fill:#ffffff"
   d="m 89.5,78 3.5,6 -3.5,6 h -6.9 l -3.5,-6 3.5,-6 h 6.9 M 90,76 h -8 c -0.4,0 -0.7,0.2 -0.9,0.5 l -4,7 c -0.2,0.3 -0.2,0.7 0,1 l 4,7 c 0.2,0.3 0.5,0.5 0.9,0.5 h 8 c 0.4,0 0.7,-0.2 0.9,-0.5 l 4,-7 c 0.2,-0.3 0.2,-0.7 0,-1 l -4,-7 C 90.7,76.2 90.4,76 90,76 Z"
   id="path1806" />
	</g>
	<line
   style="display:inline;fill:none;stroke:#ffffff;stroke-width:4;stroke-miterlimit:10"
   x1="36.5"
   y1="91.900002"
   x2="83.5"
   y2="99.800003"
   id="line1810" />
	<g
   id="g1814"
   style="display:inline">
		<line
   style="display:inline;fill:none;stroke:#ffffff;stroke-width:4;stroke-miterlimit:10"
   x1="86"
   y1="68"
   x2="38"
   y2="68"
   id="line1812" />
	</g>
	
		<path
   style="clip-rule:evenodd;display:inline;fill:none;fill-rule:evenodd;stroke:#ffffff;stroke-width:4;stroke-linejoin:round;stroke-miterlimit:10"
   d="M 31.6,69.8 56.5,37.9 c 1,-1.2 2.8,-1.4 4,-0.4 l 1.2,1.1 c 0.9,0.7 1.1,1.9 0.7,3 L 52,68"
   id="path1816" />
	<path
   style="display:inline;fill:#ffffff;stroke:#ffffff;stroke-miterlimit:10"
   d="m 82.5,29.5 -1.5,-1.4 -7.3,8.1 -8,2.6 -5.7,-5.2 1.7,-8.2 7.3,-8.1 -1.6,-1.3 -2.8,0.2 -6.3,7 c -0.2,0.3 -0.4,0.6 -0.5,0.9 l -2.1,9.8 c -0.1,0.7 0.1,1.4 0.6,1.9 l 7.5,6.7 c 0.4,0.3 0.8,0.5 1.3,0.5 0.2,0 0.4,0 0.6,-0.1 l 9.6,-3.1 c 0.3,-0.1 0.6,-0.3 0.9,-0.6 l 6.3,-7 z"
   id="path1818" />
</g>
<g
   inkscape:groupmode="layer"
   id="layer2"
   inkscape:label="Layer_4"><rect
     style="opacity:1;fill:#207ac5;fill-opacity:1;stroke:none;stroke-width:0.56821;stroke-opacity:0"
     id="rect3335"
     width="25.4375"
     height="5.8073044"
     x="69.03125"
     y="102.47395"
     ry="2.9036522" /><rect
     style="opacity:1;fill:none;fill-opacity:1;stroke:#ffffff;stroke-width:0.56821;stroke-opacity:1"
     id="rect3337"
     width="25.4375"
     height="5.8073044"
     x="69.03125"
     y="102.47395"
     ry="2.9036522" /><path
     sodipodi:type="star"
     style="opacity:1;fill:#ffffff;fill-opacity:1;stroke:#ffffff;stroke-opacity:1"
     id="path3345"
     sodipodi:sides="6"
     sodipodi:cx="85.03125"
     sodipodi:cy="105.39063"
     sodipodi:r1="2.2831757"
     sodipodi:r2="1.977288"
     sodipodi:arg1="1.0397662"
     sodipodi:arg2="1.563365"
     inkscape:flatsided="true"
     inkscape:rounded="0"
     inkscape:randomized="0"
     d="m 86.1875,107.35938 -2.283113,0.017 -1.15625,-1.96875 1.126863,-1.98572 2.283113,-0.017 1.15625,1.96875 z"
     transform="matrix(1,0.00682804,0,1,0,-0.58059688)" /><path
     sodipodi:type="star"
     style="opacity:1;fill:#ffffff;fill-opacity:1;stroke:#ffffff;stroke-opacity:1"
     id="path3351"
     sodipodi:sides="6"
     sodipodi:cx="75"
     sodipodi:cy="104"
     sodipodi:r1="1.1550881"
     sodipodi:r2="1.0003356"
     sodipodi:arg1="1.0466167"
     sodipodi:arg2="1.5702155"
     inkscape:flatsided="true"
     inkscape:rounded="0"
     inkscape:randomized="0"
     d="m 75.578125,105 -1.155088,6.7e-4 -0.578125,-1 0.576963,-1.00067 1.155088,-6.7e-4 0.578125,1 z"
     transform="matrix(1.5963856,0,0,1.6107763,-46.963281,-62.10322)" /><path
     sodipodi:type="star"
     style="opacity:1;fill:#ffffff;fill-opacity:1;stroke:#ffffff;stroke-opacity:1"
     id="path3357"
     sodipodi:sides="6"
     sodipodi:cx="78"
     sodipodi:cy="104.77344"
     sodipodi:r1="0.37109375"
     sodipodi:r2="0.32137662"
     sodipodi:arg1="1.5707963"
     sodipodi:arg2="2.0943951"
     inkscape:flatsided="true"
     inkscape:rounded="0"
     inkscape:randomized="0"
     d="m 78,105.14453 -0.321377,-0.18555 0,-0.37109 L 78,104.40234 l 0.321377,0.18555 0,0.37109 z"
     transform="matrix(2.6662555,0,0,2.5810127,-129.07593,-164.97363)" /><path
     sodipodi:type="star"
     style="opacity:1;fill:#ffffff;fill-opacity:1;stroke:#ffffff;stroke-opacity:1"
     id="path3359"
     sodipodi:sides="6"
     sodipodi:cx="78"
     sodipodi:cy="104.77344"
     sodipodi:r1="0.37109375"
     sodipodi:r2="0.32137662"
     sodipodi:arg1="1.5707963"
     sodipodi:arg2="2.0943951"
     inkscape:flatsided="true"
     inkscape:rounded="0"
     inkscape:randomized="0"
     d="m 78,105.14453 -0.321377,-0.18555 0,-0.37109 L 78,104.40234 l 0.321377,0.18555 0,0.37109 z"
     transform="matrix(2.6662555,0,0,2.5810127,-116.96793,-164.97363)" /></g></svg>
